{
  "accessors": [
    {
      "bufferView": 2,
      "componentType": 5126,
      "count": 1862,
      "max": [
        109.8232192993164,
        96.63492584228516,
        2.91819429397583
      ],
      "min": [
        -108.56727600097656,
        -149.76577758789063,
        -12.597705841064453
      ],
      "type": "VEC3"
    },
    {
      "bufferView": 2,
      "byteOffset": 22344,
      "componentType": 5126,
      "count": 1862,
      "max": [
        1.0,
        1.0,
        1.0
      ],
      "min": [
        -1.0,
        -1.0,
        -1.0
      ],
      "type": "VEC3"
    },
    {
      "bufferView": 1,
      "componentType": 5126,
      "count": 1862,
      "max": [
        794.0018920898438,
        1467.2252197265625
      ],
      "min": [
        -512.0814819335938,
        -388.24139404296875
      ],
      "type": "VEC2"
    },
    {
      "bufferView": 0,
      "componentType": 5125,
      "count": 6828,
      "type": "SCALAR"
    },
    {
      "bufferView": 2,
      "byteOffset": 44688,
      "componentType": 5126,
      "count": 8,
      "max": [
        4.484821319580078,
        90.172119140625,
        -8.091606140136719
      ],
      "min": [
        -103.35658264160156,
        -148.10797119140625,
        -9.361405372619629
      ],
      "type": "VEC3"
    },
    {
      "bufferView": 2,
      "byteOffset": 44784,
      "componentType": 5126,
      "count": 8,
      "max": [
        0.0,
        0.0,
        1.0
      ],
      "min": [
        0.0,
        -4.227919987442874e-07,
        -1.0
      ],
      "type": "VEC3"
    },
    {
      "bufferView": 1,
      "byteOffset": 14896,
      "componentType": 5126,
      "count": 8,
      "max": [
        245.0323028564453,
        -295.24139404296875
      ],
      "min": [
        -512.0814819335938,
        -388.24139404296875
      ],
      "type": "VEC2"
    },
    {
      "bufferView": 0,
      "byteOffset": 27312,
      "componentType": 5125,
      "count": 12,
      "type": "SCALAR"
    },
    {
      "bufferView": 2,
      "byteOffset": 44880,
      "componentType": 5126,
      "count": 64,
      "max": [
        8.722465515136719,
        147.1471405029297,
        2.4543607234954834
      ],
      "min": [
        -99.11892700195313,
        -93.67235565185547,
        -2.624539375305176
      ],
      "type": "VEC3"
    },
    {
      "bufferView": 2,
      "byteOffset": 45648,
      "componentType": 5126,
      "count": 64,
      "max": [
        1.0,
        1.0,
        1.0
      ],
      "min": [
        -1.0,
        -1.0,
        -1.0
      ],
      "type": "VEC3"
    },
    {
      "bufferView": 1,
      "byteOffset": 14960,
      "componentType": 5126,
      "count": 64,
      "max": [
        792.8674926757813,
        448.618408203125
      ],
      "min": [
        -551.4741821289063,
        -388.24139404296875
      ],
      "type": "VEC2"
    },
    {
      "bufferView": 0,
      "byteOffset": 27360,
      "componentType": 5125,
      "count": 120,
      "type": "SCALAR"
    },
    {
      "bufferView": 2,
      "byteOffset": 46416,
      "componentType": 5126,
      "count": 8,
      "max": [
        8.722465515136719,
        145.87744140625,
        0.549760639667511
      ],
      "min": [
        -99.11892700195313,
        -92.40265655517578,
        -0.7199392914772034
      ],
      "type": "VEC3"
    },
    {
      "bufferView": 2,
      "byteOffset": 46512,
      "componentType": 5126,
      "count": 8,
      "max": [
        0.0,
        0.0,
        1.0
      ],
      "min": [
        0.0,
        0.0,
        -1.0
      ],
      "type": "VEC3"
    },
    {
      "bufferView": 1,
      "byteOffset": 15472,
      "componentType": 5126,
      "count": 8,
      "max": [
        284.42498779296875,
        -295.24139404296875
      ],
      "min": [
        -551.4741821289063,
        -388.24139404296875
      ],
      "type": "VEC2"
    },
    {
      "bufferView": 0,
      "byteOffset": 27840,
      "componentType": 5125,
      "count": 12,
      "type": "SCALAR"
    },
    {
      "bufferView": 2,
      "byteOffset": 46608,
      "componentType": 5126,
      "count": 432,
      "max": [
        5.600067138671875,
        4.971643447875977,
        7.459260940551758
      ],
      "min": [
        3.0606689453125,
        -10.264856338500977,
        -7.4433393478393555
      ],
      "type": "VEC3"
    },
    {
      "bufferView": 2,
      "byteOffset": 51792,
      "componentType": 5126,
      "count": 432,
      "max": [
        1.0,
        1.0,
        1.0
      ],
      "min": [
        -1.0,
        -1.0,
        -1.0
      ],
      "type": "VEC3"
    },
    {
      "bufferView": 1,
      "byteOffset": 15536,
      "componentType": 5126,
      "count": 432,
      "max": [
        39.262901306152344,
        -0.9075000286102295
      ],
      "min": [
        -38.262901306152344,
        -10.812999725341797
      ],
      "type": "VEC2"
    },
    {
      "bufferView": 0,
      "byteOffset": 27888,
      "componentType": 5125,
      "count": 1512,
      "type": "SCALAR"
    }
  ],
  "asset": {
    "extras": {
      "author": "ROY (https://sketchfab.com/roy.gearloft.in)",
      "license": "CC-BY-4.0 (http://creativecommons.org/licenses/by/4.0/)",
      "source": "https://sketchfab.com/3d-models/sliding-door-c8d08012886f49798a0fb5ffbd5b2feb",
      "title": "Sliding Door"
    },
    "generator": "Sketchfab-13.83.0",
    "version": "2.0"
  },
  "bufferViews": [
    {
      "buffer": 0,
      "byteLength": 33936,
      "name": "floatBufferViews",
      "target": 34963
    },
    {
      "buffer": 0,
      "byteLength": 18992,
      "byteOffset": 33936,
      "byteStride": 8,
      "name": "floatBufferViews",
      "target": 34962
    },
    {
      "buffer": 0,
      "byteLength": 56976,
      "byteOffset": 52928,
      "byteStride": 12,
      "name": "floatBufferViews",
      "target": 34962
    }
  ],
  "buffers": [
    {
      "byteLength": 109904,
      "uri": "scene.bin"
    }
  ],
  "extensionsUsed": [
    "KHR_materials_transmission"
  ],
  "materials": [
    {
      "doubleSided": true,
      "name": "Ebony_mat",
      "pbrMetallicRoughness": {
        "baseColorFactor": [
          0.008727435579911768,
          0.011121765413159037,
          0.0314744365057738,
          1.0
        ],
        "metallicFactor": 0.512195,
        "roughnessFactor": 0.229206
      }
    },
    {
      "alphaMode": "BLEND",
      "doubleSided": true,
      "extensions": {
        "KHR_materials_transmission": {
          "transmissionFactor": 1.0
        }
      },
      "name": "Window_Mat",
      "pbrMetallicRoughness": {
        "baseColorFactor": [
          1.0,
          1.0,
          1.0,
          0.25
        ],
        "roughnessFactor": 0.0
      }
    },
    {
      "doubleSided": true,
      "name": "Silver_mat",
      "pbrMetallicRoughness": {
        "baseColorFactor": [
          0.184467,
          0.184467,
          0.184467,
          1.0
        ],
        "roughnessFactor": 0.272358
      }
    }
  ],
  "meshes": [
    {
      "name": "Object_0",
      "primitives": [
        {
          "attributes": {
            "NORMAL": 1,
            "POSITION": 0,
            "TEXCOORD_0": 2
          },
          "indices": 3,
          "material": 0,
          "mode": 4
        }
      ]
    },
    {
      "name": "Object_1",
      "primitives": [
        {
          "attributes": {
            "NORMAL": 5,
            "POSITION": 4,
            "TEXCOORD_0": 6
          },
          "indices": 7,
          "material": 1,
          "mode": 4
        }
      ]
    },
    {
      "name": "Object_2",
      "primitives": [
        {
          "attributes": {
            "NORMAL": 9,
            "POSITION": 8,
            "TEXCOORD_0": 10
          },
          "indices": 11,
          "material": 0,
          "mode": 4
        }
      ]
    },
    {
      "name": "Object_3",
      "primitives": [
        {
          "attributes": {
            "NORMAL": 13,
            "POSITION": 12,
            "TEXCOORD_0": 14
          },
          "indices": 15,
          "material": 1,
          "mode": 4
        }
      ]
    },
    {
      "name": "Object_4",
      "primitives": [
        {
          "attributes": {
            "NORMAL": 17,
            "POSITION": 16,
            "TEXCOORD_0": 18
          },
          "indices": 19,
          "material": 2,
          "mode": 4
        }
      ]
    }
  ],
  "nodes": [
    {
      "children": [
        1
      ],
      "matrix": [
        1.4285714626312256,
        0.0,
        0.0,
        0.0,
        0.0,
        3.172065860271246e-16,
        -1.4285714626312256,
        0.0,
        0.0,
        1.4285714626312256,
        3.172065860271246e-16,
        0.0,
        0.0,
        0.0,
        0.0,
        1.0
      ],
      "name": "Sketchfab_model"
    },
    {
      "children": [
        2
      ],
      "name": "root"
    },
    {
      "children": [
        3
      ],
      "matrix": [
        1.0,
        0.0,
        0.0,
        0.0,
        0.0,
        2.220446049250313e-16,
        1.0,
        0.0,
        0.0,
        -1.0,
        2.220446049250313e-16,
        0.0,
        0.0,
        0.0,
        0.0,
        1.0
      ],
      "name": "GLTF_SceneRootNode"
    },
    {
      "children": [
        4,
        5,
        6
      ],
      "matrix": [
        0.006264011841267347,
        0.0,
        0.0,
        0.0,
        0.0,
        0.006264011841267347,
        0.0,
        0.0,
        0.0,
        0.0,
        0.006264011841267347,
        0.0,
        0.0,
        0.9483188390731812,
        0.0,
        1.0
      ],
      "name": "16668_84x96_Slider_Door-Black_V1_1"
    },
    {
      "mesh": 0,
      "name": "Object_4"
    },
    {
      "mesh": 1,
      "name": "Object_5"
    },
    {
      "children": [
        7,
        8,
        9
      ],
      "matrix": [
        1.0,
        0.0,
        0.0,
        0.0,
        0.0,
        1.0,
        0.0,
        0.0,
        0.0,
        0.0,
        1.0,
        0.0,
        95.79684448242188,
        -55.70532989501953,
        -2.7511587142944336,
        1.0
      ],
      "name": "16668_84x96_Slider_Door-Black_V1.001_0"
    },
    {
      "mesh": 2,
      "name": "Object_7"
    },
    {
      "mesh": 3,
      "name": "Object_8"
    },
    {
      "mesh": 4,
      "name": "Object_9"
    }
  ],
  "scene": 0,
  "scenes": [
    {
      "name": "Sketchfab_Scene",
      "nodes": [
        0
      ]
    }
  ]
}
